<svg xmlns="http://www.w3.org/2000/svg" width="1200" height="284" viewBox="0 0 1200 284" role="img" aria-labelledby="it id">
<title id="it">Impact so far</title>
<desc id="id">273 written AI lectures; 110 animated video lectures; more than 8 hours of narrated animation; 4 research projects with 1 paper in the publication process; more than 10 years of competitive programming; 39 certificates and credentials.</desc>
<defs>
  <linearGradient id="sh" x1="0" y1="0" x2="1" y2="0">
    <stop offset="0" stop-color="#fff" stop-opacity="0"/>
    <stop offset=".5" stop-color="#fff" stop-opacity=".07"/>
    <stop offset="1" stop-color="#fff" stop-opacity="0"/>
  </linearGradient>
  <clipPath id="tiles">
    <rect x="2" y="2" width="372" height="126" rx="16"/><rect x="414" y="2" width="372" height="126" rx="16"/><rect x="826" y="2" width="372" height="126" rx="16"/>
    <rect x="2" y="156" width="372" height="126" rx="16"/><rect x="414" y="156" width="372" height="126" rx="16"/><rect x="826" y="156" width="372" height="126" rx="16"/>
  </clipPath>
</defs>
<style>
  text { font-family: 'Segoe UI', 'Helvetica Neue', Helvetica, Arial, sans-serif; }
  .t { animation: up .8s ease-out both; }
  .n { font-size: 46px; font-weight: 800; }
  .l { font-size: 18px; font-weight: 600; fill: #e0e7ff; }
  .s { font-size: 14px; fill: #94a3d8; }
  .shine { animation: shine 7s ease-in-out infinite; }
  @keyframes up { from { opacity: 0; transform: translateY(8px) } to { opacity: 1; transform: none } }
  @keyframes shine { 0% { transform: translateX(-400px) } 45%, 100% { transform: translateX(1400px) } }
  @media (prefers-reduced-motion: reduce) { * { animation: none !important } }
</style>

<g class="t">
  <rect x="2" y="2" width="372" height="126" rx="16" fill="#0b1130" stroke="#22d3ee" stroke-opacity=".4" stroke-width="1.5"/>
  <rect x="2" y="26" width="4" height="78" rx="2" fill="#22d3ee"/>
  <text class="n" x="28" y="60" fill="#22d3ee">273</text>
  <text class="l" x="28" y="90">written AI lectures</text>
  <text class="s" x="28" y="112">The AI Lecture Hall · 10 learning tracks</text>
</g>
<g class="t" style="animation-delay:.1s">
  <rect x="414" y="2" width="372" height="126" rx="16" fill="#0b1130" stroke="#a78bfa" stroke-opacity=".4" stroke-width="1.5"/>
  <rect x="414" y="26" width="4" height="78" rx="2" fill="#a78bfa"/>
  <text class="n" x="440" y="60" fill="#a78bfa">110</text>
  <text class="l" x="440" y="90">animated video lectures</text>
  <text class="s" x="440" y="112">AI in Motion · 36 deep dives of 10+ minutes</text>
</g>
<g class="t" style="animation-delay:.2s">
  <rect x="826" y="2" width="372" height="126" rx="16" fill="#0b1130" stroke="#f472b6" stroke-opacity=".4" stroke-width="1.5"/>
  <rect x="826" y="26" width="4" height="78" rx="2" fill="#f472b6"/>
  <text class="n" x="852" y="60" fill="#f472b6">8 h+</text>
  <text class="l" x="852" y="90">of narrated animation</text>
  <text class="s" x="852" y="112">subtitles, quizzes and printable notes</text>
</g>
<g class="t" style="animation-delay:.3s">
  <rect x="2" y="156" width="372" height="126" rx="16" fill="#0b1130" stroke="#34d399" stroke-opacity=".4" stroke-width="1.5"/>
  <rect x="2" y="180" width="4" height="78" rx="2" fill="#34d399"/>
  <text class="n" x="28" y="214" fill="#34d399">4</text>
  <text class="l" x="28" y="244">computer-vision research projects</text>
  <text class="s" x="28" y="266">1 paper in the publication process</text>
</g>
<g class="t" style="animation-delay:.4s">
  <rect x="414" y="156" width="372" height="126" rx="16" fill="#0b1130" stroke="#fbbf24" stroke-opacity=".4" stroke-width="1.5"/>
  <rect x="414" y="180" width="4" height="78" rx="2" fill="#fbbf24"/>
  <text class="n" x="440" y="214" fill="#fbbf24">10+</text>
  <text class="l" x="440" y="244">years of competitive programming</text>
  <text class="s" x="440" y="266">Codeforces · CodeChef · HackerRank</text>
</g>
<g class="t" style="animation-delay:.5s">
  <rect x="826" y="156" width="372" height="126" rx="16" fill="#0b1130" stroke="#fb923c" stroke-opacity=".4" stroke-width="1.5"/>
  <rect x="826" y="180" width="4" height="78" rx="2" fill="#fb923c"/>
  <text class="n" x="852" y="214" fill="#fb923c">39</text>
  <text class="l" x="852" y="244">certificates &amp; credentials</text>
  <text class="s" x="852" y="266">Stanford · DeepLearning.AI · UCSD · UIUC</text>
</g>

<g clip-path="url(#tiles)">
  <rect class="shine" x="0" y="0" width="260" height="284" fill="url(#sh)"/>
</g>
</svg>
